# xmcd CD database file
#
# Track frame offsets:
#	150
#	7275
#	31507
#	53082
#	65695
#	74042
#	97222
#	107115
#	122105
#	141362
#	148945
#
# Disc length: 2172 seconds
#
# Revision: 0
# Processed by: cddbd v1.5.2PL0 Copyright (c) Steve Scherf et al.
# Submitted via: CDex 1.70beta2
#
DISCID=b0087a0b
DTITLE=Wino - Wino
DYEAR=1997
DGENRE=Jazz
TTITLE0=Inspiration
TTITLE1=Desperation
TTITLE2=One Eyed Willie
TTITLE3=Glass Blower
TTITLE4=A Minute Fifty- One
TTITLE5=Burn Down The Brick Factory
TTITLE6=(5 clubs)
TTITLE7=Attack Utopia
TTITLE8=Eon
TTITLE9=Fast Freddie
TTITLE10=Make Out Party
EXTD=YEAR: 1997
EXTT0=
EXTT1=
EXTT2=
EXTT3=
EXTT4=
EXTT5=
EXTT6=
EXTT7=
EXTT8=
EXTT9=
EXTT10=
PLAYORDER=
